<svg id="visual" viewBox="0 0 1200 720" width="1200" height="720" xmlns="http://www.w3.org/2000/svg" xmlns:xlink="http://www.w3.org/1999/xlink" version="1.1"><rect width="1200" height="720" fill="#172027"></rect><g><g transform="translate(504 567)"><path d="M0 -108.6L94.1 -54.3L94.1 54.3L0 108.6L-94.1 54.3L-94.1 -54.3Z" fill="#47b1a8"></path></g><g transform="translate(828 358)"><path d="M0 -89L77.1 -44.5L77.1 44.5L0 89L-77.1 44.5L-77.1 -44.5Z" fill="#47b1a8"></path></g><g transform="translate(1090 505)"><path d="M0 -66L57.2 -33L57.2 33L0 66L-57.2 33L-57.2 -33Z" fill="#47b1a8"></path></g><g transform="translate(496 28)"><path d="M0 -65L56.3 -32.5L56.3 32.5L0 65L-56.3 32.5L-56.3 -32.5Z" fill="#47b1a8"></path></g><g transform="translate(134 131)"><path d="M0 -78L67.5 -39L67.5 39L0 78L-67.5 39L-67.5 -39Z" fill="#47b1a8"></path></g><g transform="translate(1100 77)"><path d="M0 -64L55.4 -32L55.4 32L0 64L-55.4 32L-55.4 -32Z" fill="#47b1a8"></path></g></g></svg>